<svg width="30" height="22" viewBox="0 0 30 22" fill="none" xmlns="http://www.w3.org/2000/svg">
<path d="M2.81834 6.62714C3.18979 6.8714 4.30947 7.59686 6.17744 8.80313C8.04547 10.0094 9.47651 10.9382 10.4706 11.5896C10.5798 11.661 10.8119 11.8162 11.1668 12.0554C11.5219 12.2948 11.8169 12.4883 12.0516 12.6358C12.2865 12.7834 12.5705 12.9488 12.9038 13.132C13.2371 13.315 13.5512 13.4527 13.8461 13.5438C14.1411 13.6357 14.4142 13.6812 14.6654 13.6812H14.6819H14.6984C14.9496 13.6812 15.2228 13.6357 15.5178 13.5438C15.8126 13.4527 16.127 13.3149 16.46 13.132C16.7931 12.9486 17.0771 12.7833 17.312 12.6358C17.5469 12.4883 17.8417 12.2948 18.1968 12.0554C18.5517 11.816 18.784 11.661 18.8933 11.5896C19.8981 10.9382 22.4546 9.2839 26.5618 6.62682C27.3593 6.10787 28.0255 5.48168 28.5607 4.74868C29.0963 4.016 29.3638 3.24738 29.3638 2.44325C29.3638 1.77128 29.1042 1.19606 28.5852 0.717647C28.0663 0.239127 27.4518 0 26.7419 0H2.62166C1.78056 0 1.13328 0.264639 0.679935 0.793916C0.226645 1.3233 0 1.985 0 2.77897C0 3.4203 0.30051 4.11527 0.901243 4.86345C1.50192 5.61169 2.14116 6.19964 2.81834 6.62714Z" fill="white"/>
<path d="M27.725 8.26105C24.1423 10.5208 21.4218 12.277 19.565 13.5293C18.9423 13.9567 18.4372 14.2903 18.0493 14.5294C17.6614 14.7686 17.1455 15.0129 16.5008 15.2622C15.8564 15.5119 15.2559 15.6363 14.6986 15.6363H14.6819H14.6655C14.1084 15.6363 13.5074 15.5119 12.863 15.2622C12.2186 15.0129 11.7024 14.7686 11.3146 14.5294C10.9269 14.2903 10.4216 13.9567 9.799 13.5293C8.32417 12.5215 5.60959 10.7652 1.65516 8.26105C1.03233 7.87447 0.480667 7.43135 0 6.93262V19.0566C0 19.7289 0.256604 20.3038 0.7701 20.7823C1.28348 21.2609 1.9008 21.5001 2.62183 21.5001H26.7422C27.463 21.5001 28.0803 21.2609 28.5937 20.7823C29.1073 20.3037 29.3638 19.729 29.3638 19.0566V6.93262C28.894 7.42103 28.348 7.86415 27.725 8.26105Z" fill="white"/>
</svg>
