<svg width="37" height="52" viewBox="0 0 37 52" fill="none" xmlns="http://www.w3.org/2000/svg">
<path fill-rule="evenodd" clip-rule="evenodd" d="M18.5785 51C38.3551 26.6652 44.4466 1 18.5785 1C-7.2896 1 -2.29684 26.6652 18.5785 51ZM18.3842 23.2684C22.2322 23.2684 25.3516 20.149 25.3516 16.301C25.3516 12.453 22.2322 9.33356 18.3842 9.33356C14.5362 9.33356 11.4168 12.453 11.4168 16.301C11.4168 20.149 14.5362 23.2684 18.3842 23.2684Z" fill="#1E3E56"/>
<path d="M18.5785 51L17.8954 51.586C18.0691 51.7885 18.3237 51.9035 18.5905 51.8999C18.8573 51.8964 19.1087 51.7747 19.277 51.5676L18.5785 51ZM19.277 51.5676C29.2016 39.3555 35.8088 26.6797 36.5924 16.9467C36.9864 12.053 35.9133 7.78946 32.9124 4.75733C29.9222 1.73601 25.1773 0.1 18.5785 0.1V1.9C24.9138 1.9 29.108 3.47214 31.633 6.02351C34.1474 8.56407 35.1657 12.2378 34.7982 16.8022C34.0589 25.9855 27.732 38.3097 17.8801 50.4324L19.277 51.5676ZM18.5785 0.1C11.9781 0.1 7.17267 1.73655 4.0999 4.7476C1.0145 7.77103 -0.171917 12.0298 0.151667 16.9337C0.794917 26.6822 7.4128 39.3662 17.8954 51.586L19.2616 50.414C8.86887 38.299 2.5527 25.983 1.94776 16.8152C1.64725 12.261 2.75821 8.58249 5.35972 6.03324C7.97386 3.4716 12.2448 1.9 18.5785 1.9V0.1ZM24.4516 16.301C24.4516 19.6519 21.7352 22.3684 18.3842 22.3684V24.1684C22.7293 24.1684 26.2516 20.646 26.2516 16.301H24.4516ZM18.3842 10.2336C21.7352 10.2336 24.4516 12.95 24.4516 16.301H26.2516C26.2516 11.9559 22.7293 8.43356 18.3842 8.43356V10.2336ZM12.3168 16.301C12.3168 12.95 15.0333 10.2336 18.3842 10.2336V8.43356C14.0392 8.43356 10.5168 11.9559 10.5168 16.301H12.3168ZM18.3842 22.3684C15.0333 22.3684 12.3168 19.6519 12.3168 16.301H10.5168C10.5168 20.646 14.0392 24.1684 18.3842 24.1684V22.3684Z" fill="#1E3E56"/>
</svg>
