<svg width="40" height="40" viewBox="0 0 40 40" fill="none" xmlns="http://www.w3.org/2000/svg">
<path fill-rule="evenodd" clip-rule="evenodd" d="M20 40C31.0457 40 40 31.0457 40 20C40 8.9543 31.0457 0 20 0C8.9543 0 0 8.9543 0 20C0 31.0457 8.9543 40 20 40ZM15.6953 19.9997C15.6953 17.6121 17.6457 15.6953 19.9997 15.6953C22.3536 15.6953 24.304 17.6457 24.304 19.9997C24.304 22.3536 22.3872 24.304 19.9997 24.304C17.6121 24.304 15.6953 22.3872 15.6953 19.9997ZM17.2422 19.9997C17.2422 21.5129 18.4864 22.7571 19.9997 22.7571C21.5129 22.7571 22.7571 21.5129 22.7571 19.9997C22.7571 18.4864 21.5129 17.2422 19.9997 17.2422C18.4864 17.2422 17.2422 18.4864 17.2422 19.9997ZM24.6934 16.4782C25.3418 16.4782 25.8674 15.9526 25.8674 15.3043C25.8674 14.6559 25.3418 14.1304 24.6934 14.1304C24.0451 14.1304 23.5195 14.6559 23.5195 15.3043C23.5195 15.9526 24.0451 16.4782 24.6934 16.4782ZM23.7379 11C25.2621 11 26.6048 11.5081 27.5484 12.4879C28.4919 13.4315 29 14.7379 29 16.2621V23.7379C29 25.2984 28.4919 26.6411 27.5121 27.5847C26.5685 28.4919 25.2621 29 23.7016 29H16.2984C14.8105 29 13.504 28.5282 12.5242 27.5847C11.5081 26.6048 11 25.2621 11 23.7016V16.2621C11 13.1048 13.1048 11 16.2621 11H23.7379ZM26.3508 26.3871C27.004 25.7702 27.4032 24.8629 27.4032 23.7379V16.2621C27.4032 15.2097 27.0403 14.3024 26.4234 13.6492C25.7702 12.996 24.8629 12.6694 23.7742 12.6694H16.2984C15.2097 12.6694 14.2661 12.996 13.6492 13.6129C12.996 14.2661 12.6694 15.1734 12.6694 16.2621V23.7016C12.6694 24.8266 12.996 25.7339 13.6492 26.3871C14.3024 27.004 15.2097 27.3306 16.2984 27.3306H23.7016C24.7903 27.3306 25.6976 27.004 26.3508 26.3871Z" fill="white"/>
</svg>
