<svg width="40" height="40" viewBox="0 0 40 40" fill="none" xmlns="http://www.w3.org/2000/svg">
<circle cx="20" cy="20" r="20" fill="#4A76AE"/>
<path fill-rule="evenodd" clip-rule="evenodd" d="M19.7474 27.0557C20.4797 27.0557 20.4797 26.0105 20.4797 25.6051C20.4797 24.8798 21.2121 24.1545 21.9444 24.1545C22.6767 24.1545 23.9327 25.3984 24.8737 26.3304C25.606 27.0557 25.606 27.0557 26.3384 27.0557C27.0707 27.0557 28.5353 27.0557 28.5353 27.0557C28.5353 27.0557 30 27.0006 30 25.6051C30 25.1518 29.4984 24.3829 27.803 22.7038C26.3384 21.2532 25.587 22.0024 27.803 19.0772C29.1527 17.2958 30.1348 15.682 29.9663 15.2164C29.8052 14.7717 26.0513 14.0638 25.606 14.7253C24.1414 16.9013 23.8726 17.4344 23.409 18.3519C22.6767 19.8025 22.6042 20.5279 21.9444 20.5279C21.2787 20.5279 21.2121 19.12 21.2121 18.3519C21.2121 15.954 21.5628 14.2582 20.4797 14C20.4797 14 19.0151 14 18.2827 14C17.1037 14 16.0858 14.7253 16.0858 14.7253C16.0858 14.7253 15.1769 15.4274 15.3534 15.4506C15.5717 15.4796 16.8181 15.1504 16.8181 16.176C16.8181 16.9013 16.8181 17.6266 16.8181 17.6266C16.8181 17.6266 16.8247 20.5279 16.0858 20.5279C15.3534 20.5279 13.8888 17.6266 12.4241 15.4506C11.8492 14.5969 11.6918 14.7253 10.9595 14.7253C10.1744 14.7253 9.49553 14.7558 8.76247 14.7558C8.03014 14.7558 7.9364 15.2178 8.03014 15.4506C9.4948 19.0772 10.5472 21.3547 13.33 24.2241C15.8822 26.8563 17.587 26.9963 19.0151 27.0557C19.3812 27.071 19.0151 27.0557 19.7474 27.0557Z" fill="white"/>
</svg>
