<svg width="40" height="40" viewBox="0 0 40 40" fill="none" xmlns="http://www.w3.org/2000/svg">
<path fill-rule="evenodd" clip-rule="evenodd" d="M20 40C31.0457 40 40 31.0457 40 20C40 8.9543 31.0457 0 20 0C8.9543 0 0 8.9543 0 20C0 31.0457 8.9543 40 20 40ZM20.4797 25.6051C20.4797 26.0105 20.4797 27.0557 19.7474 27.0557C19.3079 27.0557 19.264 27.0612 19.2201 27.0623C19.1908 27.063 19.1615 27.0618 19.0151 27.0557C17.587 26.9963 15.8822 26.8563 13.33 24.2241C10.5472 21.3547 9.4948 19.0772 8.03014 15.4506C7.9364 15.2178 8.03014 14.7558 8.76247 14.7558C9.12272 14.7558 9.46988 14.7484 9.82299 14.7409C10.1884 14.7332 10.5602 14.7253 10.9595 14.7253C11.0514 14.7253 11.1342 14.7233 11.21 14.7214C11.7379 14.7086 11.9214 14.7041 12.4241 15.4506C12.8612 16.1 13.2983 16.814 13.716 17.4962C14.6978 19.0999 15.572 20.5279 16.0858 20.5279C16.8247 20.5279 16.8181 17.6266 16.8181 17.6266V16.176C16.8181 15.3326 15.9752 15.4054 15.5544 15.4418C15.4634 15.4496 15.3922 15.4558 15.3534 15.4506C15.1769 15.4274 16.0858 14.7253 16.0858 14.7253C16.0858 14.7253 17.1037 14 18.2827 14H20.4797C21.3327 14.2033 21.2964 15.2982 21.2425 16.9254C21.2279 17.3645 21.2121 17.8424 21.2121 18.3519C21.2121 19.12 21.2787 20.5279 21.9444 20.5279C22.4243 20.5279 22.5935 20.1441 22.9319 19.3766C23.0588 19.089 23.2094 18.7474 23.409 18.3519L23.4112 18.3476C23.8735 17.4327 24.1437 16.8978 25.606 14.7253C26.0513 14.0638 29.8052 14.7717 29.9663 15.2164C30.1348 15.682 29.1527 17.2958 27.803 19.0772C26.0796 21.3522 26.1509 21.4047 26.9568 21.998C27.1871 22.1676 27.4774 22.3814 27.803 22.7038C29.4984 24.3829 30 25.1518 30 25.6051C30 27.0006 28.5353 27.0557 28.5353 27.0557H26.3384C26.0265 27.0557 25.8474 27.0557 25.6881 26.9997C25.4732 26.9242 25.2942 26.7468 24.8737 26.3304C23.9327 25.3984 22.6767 24.1545 21.9444 24.1545C21.2121 24.1545 20.4797 24.8798 20.4797 25.6051Z" fill="white"/>
</svg>
