<svg width="40" height="40" viewBox="0 0 40 40" fill="none" xmlns="http://www.w3.org/2000/svg">
<circle cx="20" cy="20" r="20" fill="url(#paint0_linear)"/>
<path d="M19.9997 15.6954C17.6457 15.6954 15.6953 17.6122 15.6953 19.9998C15.6953 22.3874 17.6121 24.3041 19.9997 24.3041C22.3872 24.3041 24.304 22.3537 24.304 19.9998C24.304 17.6458 22.3536 15.6954 19.9997 15.6954ZM19.9997 22.7573C18.4864 22.7573 17.2422 21.513 17.2422 19.9998C17.2422 18.4865 18.4864 17.2423 19.9997 17.2423C21.5129 17.2423 22.7571 18.4865 22.7571 19.9998C22.7571 21.513 21.5129 22.7573 19.9997 22.7573Z" fill="white"/>
<path d="M24.6934 16.4783C25.3418 16.4783 25.8674 15.9527 25.8674 15.3044C25.8674 14.656 25.3418 14.1305 24.6934 14.1305C24.0451 14.1305 23.5195 14.656 23.5195 15.3044C23.5195 15.9527 24.0451 16.4783 24.6934 16.4783Z" fill="white"/>
<path d="M27.5484 12.4879C26.6048 11.5081 25.2621 11 23.7379 11H16.2621C13.1048 11 11 13.1048 11 16.2621V23.7016C11 25.2621 11.5081 26.6048 12.5242 27.5847C13.504 28.5282 14.8105 29 16.2984 29H23.7016C25.2621 29 26.5685 28.4919 27.5121 27.5847C28.4919 26.6411 29 25.2984 29 23.7379V16.2621C29 14.7379 28.4919 13.4315 27.5484 12.4879ZM27.4032 23.7379C27.4032 24.8629 27.004 25.7702 26.3508 26.3871C25.6976 27.004 24.7903 27.3306 23.7016 27.3306H16.2984C15.2097 27.3306 14.3024 27.004 13.6492 26.3871C12.996 25.7339 12.6694 24.8266 12.6694 23.7016V16.2621C12.6694 15.1734 12.996 14.2661 13.6492 13.6129C14.2661 12.996 15.2097 12.6694 16.2984 12.6694H23.7742C24.8629 12.6694 25.7702 12.996 26.4234 13.6492C27.0403 14.3024 27.4032 15.2097 27.4032 16.2621V23.7379Z" fill="white"/>
<defs>
<linearGradient id="paint0_linear" x1="18.5" y1="3.31726e-08" x2="19" y2="40.5" gradientUnits="userSpaceOnUse">
<stop stop-color="#8A3AB9"/>
<stop offset="0.261105" stop-color="#C32AA3"/>
<stop offset="0.478849" stop-color="#CD486B"/>
<stop offset="0.684353" stop-color="#E95950"/>
<stop offset="0.909168" stop-color="#FBAD50"/>
<stop offset="1" stop-color="#FFDC7D"/>
</linearGradient>
</defs>
</svg>
